<svg width="79" height="25" viewBox="0 0 79 25" fill="none" xmlns="http://www.w3.org/2000/svg">
<path d="M63.6875 11.6631C64.7057 11.6633 65.6925 12.0161 66.4795 12.6621L66.4814 11.8701H68.2734V20.5088C68.2734 23.0933 66.444 24.9978 63.709 24.998C61.955 24.998 60.464 24.1307 59.7285 22.8467L61.1973 21.8486C61.6498 22.676 62.6504 23.2441 63.7061 23.2441C65.4435 23.2441 66.4795 22.0559 66.4795 20.5088V19.6416C65.6925 20.2876 64.7057 20.6414 63.6875 20.6416C61.16 20.6416 59.1603 18.6798 59.1602 16.1523C59.1602 13.6438 61.1599 11.6631 63.6875 11.6631ZM9.80469 6.73047C10.0398 6.75765 10.2744 6.79447 10.5078 6.84082C12.2139 7.17964 13.7814 8.0165 15.0117 9.24609C16.2422 10.4759 17.0803 12.0438 17.4199 13.75C17.7595 15.4562 17.5855 17.2248 16.9199 18.832C16.2543 20.4392 15.1271 21.8128 13.6807 22.7793C12.2342 23.7458 10.5336 24.2619 8.79395 24.2617H7.78418V16.4775H0V0H9.80469V6.73047ZM9.80469 22.1641C11.0437 21.9771 12.2067 21.4501 13.1641 20.6416C14.1214 19.833 14.8359 18.7743 15.2275 17.584C15.6191 16.3936 15.6731 15.1175 15.3828 13.8984C15.0925 12.6793 14.4691 11.5649 13.583 10.6787C12.6968 9.79255 11.5824 9.16925 10.3633 8.87891C10.1783 8.83485 9.99181 8.79972 9.80469 8.77148V22.1641ZM54.4404 11.6631C56.8545 11.6632 58.1748 13.2856 58.1748 15.0205V20.4355H56.5146V19.4922C56.1945 19.9828 55.2887 20.6426 53.9492 20.6426C51.9307 20.6407 50.6484 19.3958 50.6484 17.8496C50.6486 16.3407 51.856 15.3789 53.5156 15.3789H55.4766C56.0242 15.3789 56.3642 15.0584 56.3643 14.5869C56.3643 14.021 55.7417 13.2852 54.4404 13.2852C53.2896 13.2852 52.6097 13.9079 52.2705 14.7188L50.9316 13.8516C51.4785 12.6254 52.6484 11.6631 54.4404 11.6631ZM24.8652 12.6631C25.6524 12.0181 26.6386 11.6656 27.6562 11.666C30.1845 11.666 32.1834 13.644 32.1836 16.1523C32.1836 18.6799 30.1846 20.6416 27.6562 20.6416C26.6383 20.6413 25.652 20.2885 24.8652 19.6426V20.4355H23.0742V7.23145H24.8652V12.6631ZM73.8057 11.6631C76.5218 11.6631 78.5216 13.8321 78.2197 16.6797H71.1875C71.4357 18.1134 72.6211 18.9247 73.8662 18.9248C74.9037 18.9248 75.8463 18.4155 76.3369 17.6006L77.752 18.5635C76.9602 19.8457 75.5451 20.6376 73.8633 20.6377C71.2034 20.641 69.2609 18.5665 69.2607 16.1523C69.2607 13.7382 71.0897 11.6633 73.8057 11.6631ZM33.9268 18.1064C34.2644 18.1064 34.5884 18.2408 34.8271 18.4795C35.0659 18.7183 35.2002 19.0422 35.2002 19.3799C35.2001 20.0582 34.6725 20.6211 33.918 20.6211C33.7533 20.6241 33.5896 20.5941 33.4365 20.5332C33.2833 20.4722 33.1431 20.3812 33.0254 20.2656C32.9078 20.1502 32.8148 20.0123 32.751 19.8604C32.6872 19.7083 32.6543 19.5448 32.6543 19.3799C32.6543 19.0422 32.7886 18.7183 33.0273 18.4795C33.266 18.2409 33.5893 18.1066 33.9268 18.1064ZM47.0586 11.8711H49.416V13.4639H47.0801V17.3213C47.0801 18.4738 47.8347 18.8877 48.6455 18.8877H49.6611V20.5498H48.4199C46.5295 20.5497 45.2881 19.55 45.2881 17.4941V13.4658H44.2061V11.9766L44.5664 11.9561C45.0561 11.9353 45.3105 11.7215 45.3105 11.1904V9.7959H47.0586V11.8711ZM40.1074 11.4688C41.4105 11.4688 42.9062 12.1118 43.334 13.4355L41.9023 14.0332C41.5168 13.2853 40.8967 12.9434 39.999 12.9434C39.0362 12.9435 38.374 13.4138 38.374 14.0127C38.3741 14.7432 39.0371 14.9566 40.3408 15.1709C42.6522 15.4911 43.3758 16.5383 43.3975 17.7354C43.3975 19.059 42.0936 20.3826 40.042 20.3828C38.2466 20.3828 36.9219 19.507 36.4727 18.2461L36.4736 18.2441L37.9277 17.625C38.4191 18.6077 39.3166 18.9072 40.043 18.9072C40.9622 18.9072 41.6885 18.5006 41.6885 17.8164C41.6676 17.0688 41.0263 16.9195 39.7227 16.6846C38.1624 16.4066 36.6877 15.8927 36.667 14.1611C36.6673 12.8152 37.9278 11.4689 40.1074 11.4688ZM53.7197 16.7744C53.0032 16.7744 52.5127 17.2461 52.5127 17.8691C52.5128 18.5474 53.0785 19.0937 54.0967 19.0938C55.5338 19.0938 56.3984 18.1701 56.3984 16.8877V16.7744H53.7197ZM27.582 13.3799C26.035 13.3989 24.8655 14.5682 24.8652 16.1523C24.8652 17.7367 26.0349 18.9072 27.582 18.9072C29.1474 18.9072 30.2969 17.7367 30.2969 16.1523C30.2967 14.5682 29.1472 13.3989 27.582 13.3799ZM63.7646 13.3799C62.1994 13.399 61.0488 14.568 61.0488 16.1523C61.0489 17.7366 62.1995 18.9062 63.7646 18.9062C65.3117 18.9062 66.4813 17.7366 66.4814 16.1523C66.4814 14.568 65.3118 13.3989 63.7646 13.3799ZM73.8105 13.3252C72.4338 13.3252 71.5281 14.1929 71.2451 15.3057H76.3379C76.1873 14.3063 75.2061 13.3254 73.8105 13.3252ZM7.78418 8.77051C7.41019 8.82691 7.03993 8.91504 6.67773 9.03418C5.48743 9.42578 4.42874 10.1394 3.62012 11.0967C2.81157 12.0539 2.28477 13.2171 2.09766 14.4561H7.78418V8.77051ZM2.02246 9.85645C2.93269 8.75771 4.09943 7.8928 5.42578 7.34277C6.18372 7.02847 6.97784 6.82473 7.78418 6.73145V2.01953H2.02246V9.85645Z" fill="black"/>
</svg>
